<?xml version="1.0" encoding="UTF-8" standalone="no"?>
<!DOCTYPE svg PUBLIC "-//W3C//DTD SVG 1.1//EN" "http://www.w3.org/Graphics/SVG/1.1/DTD/svg11.dtd">
<svg width="100%" height="100%" viewBox="0 0 512 512" version="1.1" xmlns="http://www.w3.org/2000/svg" xmlns:xlink="http://www.w3.org/1999/xlink" xml:space="preserve" xmlns:serif="http://www.serif.com/" style="fill-rule:evenodd;clip-rule:evenodd;stroke-linejoin:round;stroke-miterlimit:2;">
    <g>
        <g>
            <path d="M376.264,290.173C442.578,223.88 442.578,116.013 376.264,49.72C309.95,-16.574 202.05,-16.574 135.735,49.72C69.421,116.013 69.421,223.88 135.735,290.173C163.805,318.234 199.326,334.413 235.989,338.719L235.989,395.642L195.971,395.642C184.92,395.642 175.962,404.598 175.962,415.645C175.962,426.692 184.92,435.648 195.971,435.648L235.989,435.648L235.989,491.996C235.99,503.043 244.948,511.999 256,511.999C267.051,511.999 276.009,503.043 276.009,491.996L276.009,435.648L316.028,435.648C327.079,435.648 336.037,426.692 336.037,415.645C336.037,404.598 327.079,395.642 316.028,395.642L276.009,395.642L276.009,338.72C312.673,334.413 348.194,318.234 376.264,290.173ZM164.033,261.884C113.322,211.189 113.322,128.703 164.033,78.008C214.743,27.315 297.254,27.312 347.967,78.008C398.678,128.703 398.678,211.189 347.967,261.884C297.256,312.578 214.744,312.578 164.033,261.884Z" style="fill:rgb(255,192,203);fill-rule:nonzero;"/>
        </g>
    </g>
</svg>
