<?xml version="1.0" encoding="UTF-8" standalone="no"?>
<!DOCTYPE svg PUBLIC "-//W3C//DTD SVG 1.1//EN" "http://www.w3.org/Graphics/SVG/1.1/DTD/svg11.dtd">
<svg width="100%" height="100%" viewBox="0 0 384 384" version="1.1" xmlns="http://www.w3.org/2000/svg" xmlns:xlink="http://www.w3.org/1999/xlink" xml:space="preserve" xmlns:serif="http://www.serif.com/" style="fill-rule:evenodd;clip-rule:evenodd;stroke-linejoin:round;stroke-miterlimit:2;">
    <path d="M383.793,13.938C383.617,12.559 383.313,11.23 382.809,9.984C382.793,9.953 382.793,9.91 382.785,9.871C382.785,9.863 382.777,9.855 382.77,9.848C382.215,8.535 381.457,7.344 380.602,6.238C380.391,5.977 380.184,5.719 379.961,5.473C379.047,4.441 378.055,3.488 376.902,2.711C376.871,2.687 376.832,2.68 376.801,2.656C375.688,1.922 374.457,1.367 373.168,0.93C372.848,0.816 372.535,0.719 372.207,0.633C370.855,0.266 369.465,-0 368,-0L256,-0C247.168,-0 240,7.168 240,16C240,24.832 247.168,32 256,32L329.367,32L233.871,127.496C208.406,107.129 177.055,96 144,96C64.602,96 0,160.602 0,240C0,319.398 64.602,384 144,384C223.398,384 288,319.398 288,240C288,206.961 276.879,175.617 256.496,150.129L352,54.625L352,128C352,136.832 359.168,144 368,144C376.832,144 384,136.832 384,128L384,16C384,15.664 383.922,15.344 383.902,15.016C383.879,14.648 383.84,14.297 383.793,13.938ZM144,352C82.238,352 32,301.762 32,240C32,178.238 82.238,128 144,128C173.902,128 202.055,139.641 223.223,160.734C244.359,181.945 256,210.098 256,240C256,301.762 205.762,352 144,352Z" style="fill:rgb(173,216,230);fill-rule:nonzero;"/>
</svg>
